<?xml version="1.0" encoding="UTF-8" standalone="no"?>
<!-- Generator: Adobe Illustrator 26.5.0, SVG Export Plug-In . SVG Version: 6.00 Build 0)  -->

<svg
   version="1.1"
   id="Logos"
   x="0px"
   y="0px"
   viewBox="0 0 143.8597 107.87123"
   xml:space="preserve"
   sodipodi:docname="logo-yrs.svg"
   inkscape:version="1.3 (0e150ed6c4, 2023-07-21)"
   width="143.8597"
   height="107.87123"
   xmlns:inkscape="http://www.inkscape.org/namespaces/inkscape"
   xmlns:sodipodi="http://sodipodi.sourceforge.net/DTD/sodipodi-0.dtd"
   xmlns:xlink="http://www.w3.org/1999/xlink"
   xmlns="http://www.w3.org/2000/svg"
   xmlns:svg="http://www.w3.org/2000/svg"><defs
   id="defs26"><rect
   x="84.706764"
   y="3.6511538"
   width="230.02269"
   height="262.88306"
   id="rect1" />&#10;	&#10;		&#10;&#10;		<linearGradient
   id="SVGID_1_"
   gradientUnits="userSpaceOnUse"
   x1="12.8692"
   y1="-7.1248002"
   x2="-6.3392"
   y2="26.3123">&#10;			<stop
   offset="0"
   style="stop-color:#F9808E"
   id="stop1" />&#10;			<stop
   offset="0.24"
   style="stop-color:#F57080"
   id="stop2" />&#10;			<stop
   offset="0.7"
   style="stop-color:#EB495B"
   id="stop3" />&#10;			<stop
   offset="0.91"
   style="stop-color:#E73549"
   id="stop4" />&#10;		</linearGradient>&#10;		&#10;		&#10;			<linearGradient
   id="SVGID_00000052089981993442848550000006989583125018271892_"
   gradientUnits="userSpaceOnUse"
   x1="1.724"
   y1="-17.3295"
   x2="-12.376"
   y2="15.0205">&#10;			<stop
   offset="0"
   style="stop-color:#F88594"
   id="stop5" />&#10;			<stop
   offset="0.18"
   style="stop-color:#F37182"
   id="stop6" />&#10;			<stop
   offset="0.62"
   style="stop-color:#EA4558"
   id="stop7" />&#10;			<stop
   offset="0.84"
   style="stop-color:#E73549"
   id="stop8" />&#10;		</linearGradient>&#10;		&#10;		&#10;			<linearGradient
   id="SVGID_00000028310046644321945050000003355639840351516863_"
   gradientUnits="userSpaceOnUse"
   x1="18.7486"
   y1="16.208"
   x2="0.35609999"
   y2="48.2523">&#10;			<stop
   offset="6.000000e-02"
   style="stop-color:#F9808E"
   id="stop9" />&#10;			<stop
   offset="0.32"
   style="stop-color:#F37080"
   id="stop10" />&#10;			<stop
   offset="0.81"
   style="stop-color:#E3495E"
   id="stop11" />&#10;			<stop
   offset="0.83"
   style="stop-color:#E3485D"
   id="stop12" />&#10;		</linearGradient>&#10;		&#10;		&#10;			<linearGradient
   id="SVGID_00000181063260939522331980000015017516001653504391_"
   gradientUnits="userSpaceOnUse"
   x1="28.0977"
   y1="-52.652802"
   x2="-16.1623"
   y2="13.9572">&#10;			<stop
   offset="0.13"
   style="stop-color:#EC1622"
   id="stop13" />&#10;			<stop
   offset="0.81"
   style="stop-color:#9B286D"
   id="stop14" />&#10;		</linearGradient>&#10;		&#10;		&#10;			<linearGradient
   id="SVGID_00000082351966863226919310000001554947393555880118_"
   gradientUnits="userSpaceOnUse"
   x1="40.388"
   y1="-44.7164"
   x2="9.3179998"
   y2="6.0735998">&#10;			<stop
   offset="0.13"
   style="stop-color:#EC1622"
   id="stop15" />&#10;			<stop
   offset="0.81"
   style="stop-color:#E73549"
   id="stop16" />&#10;		</linearGradient>&#10;		&#10;		&#10;			<linearGradient
   id="SVGID_00000110464301353617295950000015031990950653227144_"
   gradientUnits="userSpaceOnUse"
   x1="-11.2764"
   y1="-45.6255"
   x2="-23.896299"
   y2="-23.6558">&#10;			<stop
   offset="0.34"
   style="stop-color:#FEBC43"
   id="stop17" />&#10;			<stop
   offset="1"
   style="stop-color:#FC784E"
   id="stop18" />&#10;		</linearGradient>&#10;		&#10;		&#10;			<linearGradient
   id="SVGID_00000138569714699084346560000011026196089081002930_"
   gradientUnits="userSpaceOnUse"
   x1="-17.4613"
   y1="-41.2882"
   x2="-31.271299"
   y2="-2.0882001">&#10;			<stop
   offset="0.34"
   style="stop-color:#FEBC43"
   id="stop19" />&#10;			<stop
   offset="1"
   style="stop-color:#FC784E"
   id="stop20" />&#10;		</linearGradient>&#10;		&#10;		&#10;			<linearGradient
   id="SVGID_00000019656074705826681160000018226451299322215810_"
   gradientUnits="userSpaceOnUse"
   x1="-2.9923999"
   y1="0.83579999"
   x2="-20.3848"
   y2="46.662201">&#10;			<stop
   offset="0.4"
   style="stop-color:#9D4394"
   id="stop21" />&#10;			<stop
   offset="0.81"
   style="stop-color:#896EAA"
   id="stop22" />&#10;		</linearGradient>&#10;		&#10;		&#10;			<linearGradient
   id="SVGID_00000027565514866864214860000014257499738744680875_"
   gradientUnits="userSpaceOnUse"
   x1="1.6471"
   y1="39.819698"
   x2="-5.1128998"
   y2="18.0697">&#10;			<stop
   offset="0.17"
   style="stop-color:#896EAA"
   id="stop23" />&#10;			<stop
   offset="0.64"
   style="stop-color:#9863AA"
   id="stop24" />&#10;			<stop
   offset="0.96"
   style="stop-color:#A55AAB"
   id="stop25" />&#10;		</linearGradient>&#10;		&#10;	</defs><sodipodi:namedview
   id="namedview26"
   pagecolor="#ffffff"
   bordercolor="#666666"
   borderopacity="1.0"
   inkscape:showpageshadow="2"
   inkscape:pageopacity="0.0"
   inkscape:pagecheckerboard="0"
   inkscape:deskcolor="#d1d1d1"
   inkscape:zoom="1.3694301"
   inkscape:cx="107.34392"
   inkscape:cy="-115.37646"
   inkscape:window-width="2560"
   inkscape:window-height="1351"
   inkscape:window-x="-9"
   inkscape:window-y="-2"
   inkscape:window-maximized="1"
   inkscape:current-layer="Logos" />&#10;<style
   type="text/css"
   id="style1">&#10;	.st0{fill:url(#SVGID_1_);}&#10;	.st1{fill:url(#SVGID_00000036931012573426967070000000931951317215502002_);}&#10;	.st2{fill:url(#SVGID_00000163783870052878158280000007649453254444093330_);}&#10;	.st3{fill:url(#SVGID_00000158739367523617371320000007334472773418826161_);}&#10;	.st4{fill:url(#SVGID_00000127016883469927582270000007583842823245073794_);}&#10;	.st5{fill:url(#SVGID_00000050664373839573815800000003254363308144903067_);}&#10;	.st6{fill:url(#SVGID_00000123415478494302452100000011132000708506229420_);}&#10;	.st7{fill:url(#SVGID_00000024700520074661026520000016919990361347435407_);}&#10;	.st8{fill:url(#SVGID_00000051380323944906129260000017637628845004154538_);}&#10;	.st9{fill:#343633;}&#10;	.st10{font-family:'SimplyRounded';}&#10;	.st11{font-size:65px;}&#10;</style>&#10;<symbol
   id="RS"
   viewBox="-40.5 -53.5 80.9 107"
   transform="translate(-100.49136,-92.803538)">&#10;	<path
   class="st0"
   d="M 13.6,8.1 C 13.4,8.5 13.2,8.8 12.9,9.2 10.1,14.2 6,21.9 3.2,29.4 3,30 2.7,30.7 2.5,31.3 -1.1,26.3 -5.3,21.2 -8.2,17.2 -6.5,8.7 -1.9,-1.9 4,-12.2 L 7.2,-7 c 0.2,0.3 0.4,0.7 0.6,1 2.3,3.8 4.8,8.2 5.8,14.1 z"
   id="path4"
   style="fill:url(#SVGID_1_)" /><path
   style="fill:url(#SVGID_00000052089981993442848550000006989583125018271892_)"
   d="M 4,-12.2 C -1.9,-1.9 -6.5,8.7 -8.1,17.3 c -1.1,-1.5 -2,-2.9 -2.6,-4 -0.1,-0.1 -0.1,-0.3 -0.2,-0.4 0,0 0,-0.1 -0.1,-0.1 0,0 0,-0.1 0,-0.1 0,0 0,0 0,0 0,0 0,0 0,0 -0.1,-0.1 -0.1,-0.2 -0.2,-0.3 0,0 0,-0.1 0,-0.1 -0.2,-0.3 -0.4,-0.7 -0.5,-1 0,0 0,0 0,-0.1 -0.1,-0.2 -0.3,-0.5 -0.4,-0.7 -0.1,-0.2 -0.3,-0.5 -0.4,-0.7 -0.1,-0.2 -0.2,-0.3 -0.3,-0.5 -0.2,-0.4 -0.4,-0.8 -0.6,-1.1 1.1,-6 3.5,-10.3 5.8,-14.1 0.2,-0.3 0.4,-0.7 0.6,-1 l 7,-11.8 z"
   id="path8" /><path
   style="fill:url(#SVGID_00000028310046644321945050000003355639840351516863_)"
   d="m 14.1,18 -1.8,23.3 c 0,2.7 -0.9,5.2 -2.4,7.3 2,-3.2 -2.1,-10 -7.3,-17.2 0.2,-0.6 0.5,-1.3 0.7,-1.9 2.9,-7.6 6.9,-15.3 9.7,-20.2 0.2,-0.4 0.4,-0.8 0.7,-1.1 0.4,2.8 0.7,6.1 0.4,9.8 z"
   id="path12" /><path
   style="fill:url(#SVGID_00000181063260939522331980000015017516001653504391_)"
   d="M 34.5,-51.8 C 26.9,-46.2 13.8,-29.6 4,-12.2 l -4,-6.5 17.7,-28.8 c 3.5,-5.8 11,-7.7 16.8,-4.3 z"
   id="path14" /><path
   style="fill:url(#SVGID_00000082351966863226919310000001554947393555880118_)"
   d="M 34.5,-51.8 C 26.9,-46.2 13.8,-29.6 4,-12.2 L 7.2,-7 c 0.2,0.3 0.4,0.7 0.6,1 2.3,3.8 4.8,8.1 5.8,14.1 v 0 c 0.5,2.9 0.7,6.1 0.4,9.9 l -0.7,8.6 C 14.1,17.5 16.9,2.4 22.1,-6.5 L 38.7,-35 c 3.5,-5.8 1.6,-13.3 -4.2,-16.8 z"
   id="path16" /><path
   style="fill:url(#SVGID_00000110464301353617295950000015031990950653227144_)"
   d="m 0,-18.7 -4,6.5 c -9.8,-17.3 -22.9,-34 -30.5,-39.5 5.8,-3.5 13.3,-1.6 16.8,4.2 z"
   id="path18" /><path
   style="fill:url(#SVGID_00000138569714699084346560000011026196089081002930_)"
   d="M -4,-12.2 -7.2,-7 c -0.2,0.3 -0.4,0.7 -0.6,1 -2.3,3.8 -4.8,8.1 -5.8,14.1 C -13.8,7.7 -14.1,7.3 -14.3,6.9 -14.5,6.6 -14.7,6.3 -14.8,6 -14.9,6 -15,5.9 -15.1,5.7 L -22.2,-6.5 -38.7,-35 c -3.5,-5.8 -1.6,-13.3 4.2,-16.8 7.6,5.6 20.7,22.2 30.5,39.6 z"
   id="path20" /><path
   style="fill:url(#SVGID_00000019656074705826681160000018226451299322215810_)"
   d="m -1.1,53.5 c -3.6,-0.3 -6.8,-2.2 -8.8,-4.9 -1.5,-2 -2.4,-4.6 -2.4,-7.3 l -1.1,-13.8 c 0,-0.3 0,-0.6 -0.1,-0.9 -0.8,-9.1 -3.6,-24.2 -8.8,-33.1 l 7.1,12.2 c 0.1,0.1 0.1,0.2 0.2,0.3 0.2,0.3 0.3,0.6 0.5,0.9 0.2,0.4 0.4,0.8 0.7,1.2 0.2,0.4 0.4,0.7 0.6,1.1 0.6,1 1.2,2.2 1.9,3.4 4.3,10.7 9.9,22.6 10.2,40.9 z"
   id="path22" /><path
   style="fill:url(#SVGID_00000027565514866864214860000014257499738744680875_)"
   d="M -11.1,12.7 C -7,20.7 14,42.2 9.8,48.6 7.5,52.1 2.6,53.5 1,53.5 H -1.1 C -1.3,35.2 -7,23.3 -11.1,12.7 Z"
   id="path25" />&#10;</symbol>&#10;<text
   class="st9 st10 st11"
   id="text25"
   style="font-style:normal;font-variant:normal;font-weight:normal;font-stretch:normal;font-size:65px;font-family:'Open Sans';-inkscape-font-specification:'Open Sans, Normal';font-variant-ligatures:normal;font-variant-caps:normal;font-variant-numeric:normal;font-variant-east-asian:normal;fill:#343633"
   x="69.528633"
   y="107.23647">dn</text>&#10;<use
   xlink:href="#RS"
   width="80.900002"
   height="107"
   x="-40.5"
   y="-53.5"
   transform="translate(140.9476,146.2888)"
   style="overflow:visible"
   id="use25" />&#10;<use
   xlink:href="#RS"
   width="80.900002"
   height="107"
   x="-40.5"
   y="-53.5"
   transform="translate(140.9476,146.2888)"
   style="overflow:visible"
   id="use1" /><text
   xml:space="preserve"
   id="text1"
   style="font-size:40px;line-height:1.25;font-family:sans-serif;letter-spacing:0px;word-spacing:0px;white-space:pre;shape-inside:url(#rect1)"
   transform="translate(-100.49136,-92.803538)" /></svg>
